<?xml version="1.0" encoding="UTF-8" standalone="no"?>
<svg id="svg3" xmlns="http://www.w3.org/2000/svg" height="512" viewBox="0 0 512 512" width="512" version="1.1">
<g style="stroke-width:15.71;fill:#0e8cba;fill-rule:evenodd">
 <path id="path4808-2" d="m181.1 75.89-0.6182 49.45 34.21 30.51-0.6182-49.03z"/>
 <path id="path4810-7" d="m330.4 75.89 0.6182 49.45-34.21 30.51 0.6182-49.03z"/>
 <path id="path4812-0" d="m181.1 438.3-0.6182-49.45 34.21-30.51-0.6182 49.03z"/>
 <path id="path4814-9" d="m330.4 438.3 0.6182-49.45-34.21-30.51 0.6182 49.03z"/>
 <path id="path4822-3" d="m437 182.5-49.45-0.6188-30.51 34.21 49.03-0.6188z"/>
 <path id="path4824-6" d="m437 331.8-49.45 0.6188-30.51-34.21 49.03 0.6188z"/>
 <path id="path4826-0" d="m74.47 182.5 49.45-0.6188 30.51 34.21-49.03-0.6188z"/>
 <path id="path4828-6" d="m74.47 331.8 49.45 0.6188 30.51-34.21-49.03 0.6188z"/>
 <path id="path4898-2" d="m257.2 484.4 29.71-146.8-26.81 6.412-34.96-8.742z"/>
 <path id="path4900-6" d="m257.2 27.61 29.71 146.8-26.81-6.412-34.96 8.742z"/>
 <path id="path4902-1" d="m27.67 257.1 146.8 29.71-6.412-26.81 8.742-34.96z"/>
 <path id="path4904-8" d="m484.4 257.1-146.8 29.71 6.412-26.81-8.742-34.96z"/>
 <path id="path4876-7" d="m110.9 111.4 72.85 109.6 11.07-24.47 26.23-14.57z"/>
 <path id="path4878-9" d="m404 111.4-72.85 109.6-11.07-24.47-26.23-14.57z"/>
 <path id="path4880-2" d="m110.9 403.8 72.85-109.6 11.07 24.47 26.23 14.57z"/>
 <path id="path4882-0" d="m404 403.8-72.85-109.6-11.07 24.47-26.23 14.57z"/>
</g>
 <circle id="circle4762-3" cy="257" style="stroke-linejoin:round;color-rendering:auto;color:#000000;isolation:auto;mix-blend-mode:normal;paint-order:normal;shape-rendering:auto;solid-color:#000000;stroke:#0e8cba;image-rendering:auto;stroke-width:21.33;fill:none" cx="256.4" r="84.9"/>
<g style="color-rendering:auto;fill-rule:evenodd;color:#000000;isolation:auto;mix-blend-mode:normal;paint-order:stroke fill markers;shape-rendering:auto;solid-color:#000000;image-rendering:auto;stroke-width:15.71;fill:#0e8cba">
 <path id="path4783-7" d="m256 185.3-16.89 33.73 16.82 7.193 16.88-7.193z"/>
 <path id="path4928" d="m256 326.7-16.89-33.73 16.82-7.193 16.88 7.193z"/>
 <path id="path4930" d="m326.7 256-33.73-16.89-7.193 16.82 7.193 16.88z"/>
 <path id="path4932" d="m185.3 256 33.73-16.89 7.193 16.82-7.193 16.88z"/>
 <path id="path4934" d="m306 206-35.8 11.91 6.807 16.98 17.03 6.853z"/>
 <path id="path4936" d="m206 306 11.91-35.8 16.98 6.807 6.853 17.03z"/>
 <path id="path4938" d="m306 306-11.91-35.8-16.98 6.807-6.853 17.03z"/>
 <path id="path4940" d="m206 206 35.8 11.91-6.807 16.98-17.03 6.853z"/>
</g>
</svg>
