<?xml version="1.0" encoding="UTF-8" standalone="no"?>
<svg id="svg3" xmlns="http://www.w3.org/2000/svg" height="1024" viewBox="0 0 1024 1024" width="1024" version="1.1">
 <circle id="path4760-1" cy="399.6" cx="512.6" r="204.9" style="stroke-linejoin:round;color-rendering:auto;color:#000000;isolation:auto;mix-blend-mode:normal;paint-order:stroke fill markers;shape-rendering:auto;solid-color:#000000;stroke:#333;image-rendering:auto;stroke-width:15.37;fill:none"/>
 <path id="path4808-2" style="stroke-width:20.05;fill:#0e8cba;fill-rule:evenodd" d="m416.4 168.5-0.7888 63.09 43.66 38.93-0.7888-62.57z"/>
 <path id="path4810-7" style="stroke-width:20.05;fill:#0e8cba;fill-rule:evenodd" d="m606.9 168.5 0.7888 63.09-43.66 38.93 0.7888-62.57z"/>
 <path id="path4812-0" style="stroke-width:20.05;fill:#0e8cba;fill-rule:evenodd" d="m416.4 631-0.7888-63.09 43.66-38.93-0.7888 62.57z"/>
 <path id="path4814-9" style="stroke-width:20.05;fill:#0e8cba;fill-rule:evenodd" d="m606.9 631 0.7888-63.09-43.66-38.93 0.7888 62.57z"/>
 <path id="path4822-3" style="stroke-width:20.05;fill:#0e8cba;fill-rule:evenodd" d="m743 304.6-63.09-0.7897-38.93 43.66 62.57-0.7897z"/>
 <path id="path4824-6" style="stroke-width:20.05;fill:#0e8cba;fill-rule:evenodd" d="m743 495.1-63.09 0.7897-38.93-43.66 62.57 0.7897z"/>
 <path id="path4826-0" style="stroke-width:20.05;fill:#0e8cba;fill-rule:evenodd" d="m280.3 304.6 63.09-0.7897 38.93 43.66-62.57-0.7897z"/>
 <path id="path4828-6" style="stroke-width:20.05;fill:#0e8cba;fill-rule:evenodd" d="m280.3 495.1 63.09 0.7897 38.93-43.66-62.57 0.7897z"/>
 <path id="path4898-2" style="stroke-width:20.05;fill:#0e8cba;fill-rule:evenodd" d="m513.6 689.7 37.92-187.4-34.21 8.182-44.61-11.16z"/>
 <path id="path4900-6" style="stroke-width:20.05;fill:#0e8cba;fill-rule:evenodd" d="m513.6 106.9 37.92 187.4-34.21-8.182-44.61 11.16z"/>
 <path id="path4902-1" style="stroke-width:20.05;fill:#0e8cba;fill-rule:evenodd" d="m220.6 399.7 187.4 37.92-8.182-34.21 11.16-44.61z"/>
 <path id="path4904-8" style="stroke-width:20.05;fill:#0e8cba;fill-rule:evenodd" d="m803.4 399.7-187.4 37.92 8.182-34.21-11.16-44.61z"/>
 <path id="path4876-7" style="stroke-width:20.05;fill:#0e8cba;fill-rule:evenodd" d="m326.9 213.8 92.96 139.8 14.13-31.22 33.47-18.59z"/>
 <path id="path4878-9" style="stroke-width:20.05;fill:#0e8cba;fill-rule:evenodd" d="m700.8 213.8-93 139.8-14.1-31.2-33.5-18.6z"/>
 <path id="path4880-2" style="stroke-width:20.05;fill:#0e8cba;fill-rule:evenodd" d="m326.9 587 92.96-139.8 14.13 31.22 33.47 18.59z"/>
 <path id="path4882-0" style="stroke-width:20.05;fill:#0e8cba;fill-rule:evenodd" d="m700.8 587-93-139.8-14.1 31.2-33.5 18.6z"/>
 <circle id="circle4936-2" cy="399.6" cx="512.6" r="108.3" style="opacity:.2;color-rendering:auto;color:#000000;isolation:auto;mix-blend-mode:normal;paint-order:stroke fill markers;shape-rendering:auto;solid-color:#000000;image-rendering:auto;stroke-width:20.05;fill:#0e8cba"/>
 <circle id="circle4762-3" cy="399.6" style="stroke-linejoin:round;color-rendering:auto;color:#000000;isolation:auto;mix-blend-mode:normal;paint-order:stroke fill markers;shape-rendering:auto;solid-color:#000000;stroke:#333;image-rendering:auto;stroke-width:27.22;fill:none" cx="512.6" r="108.3"/>
 <path id="path4783-7" style="color-rendering:auto;fill-rule:evenodd;color:#000000;isolation:auto;mix-blend-mode:normal;paint-order:stroke fill markers;shape-rendering:auto;solid-color:#000000;image-rendering:auto;stroke-width:20.05;fill:#0e8cba" d="m512 308.1-21.56 43.05 21.46 9.179 21.54-9.179z"/>
 <path id="path4928" style="color-rendering:auto;fill-rule:evenodd;color:#000000;isolation:auto;mix-blend-mode:normal;paint-order:stroke fill markers;shape-rendering:auto;solid-color:#000000;image-rendering:auto;stroke-width:20.05;fill:#0e8cba" d="m512 488.5-21.56-43.05 21.46-9.179 21.54 9.179z"/>
 <path id="path4930" style="color-rendering:auto;fill-rule:evenodd;color:#000000;isolation:auto;mix-blend-mode:normal;paint-order:stroke fill markers;shape-rendering:auto;solid-color:#000000;image-rendering:auto;stroke-width:20.05;fill:#0e8cba" d="m602.2 398.3-43.05-21.56-9.179 21.46 9.179 21.54z"/>
 <path id="path4932" style="color-rendering:auto;fill-rule:evenodd;color:#000000;isolation:auto;mix-blend-mode:normal;paint-order:stroke fill markers;shape-rendering:auto;solid-color:#000000;image-rendering:auto;stroke-width:20.05;fill:#0e8cba" d="m421.8 398.3 43.05-21.56 9.179 21.46-9.179 21.54z"/>
 <path id="path4934" style="color-rendering:auto;fill-rule:evenodd;color:#000000;isolation:auto;mix-blend-mode:normal;paint-order:stroke fill markers;shape-rendering:auto;solid-color:#000000;image-rendering:auto;stroke-width:20.05;fill:#0e8cba" d="m575.8 334.5-45.68 15.2 8.686 21.67 21.73 8.744z"/>
 <path id="path4936" style="color-rendering:auto;fill-rule:evenodd;color:#000000;isolation:auto;mix-blend-mode:normal;paint-order:stroke fill markers;shape-rendering:auto;solid-color:#000000;image-rendering:auto;stroke-width:20.05;fill:#0e8cba" d="m448.2 462.2 15.2-45.68 21.67 8.686 8.744 21.73z"/>
 <path id="path4938" style="color-rendering:auto;fill-rule:evenodd;color:#000000;isolation:auto;mix-blend-mode:normal;paint-order:stroke fill markers;shape-rendering:auto;solid-color:#000000;image-rendering:auto;stroke-width:20.05;fill:#0e8cba" d="m575.8 462.2-15.2-45.68-21.67 8.686-8.744 21.73z"/>
 <path id="path4940" style="color-rendering:auto;fill-rule:evenodd;color:#000000;isolation:auto;mix-blend-mode:normal;paint-order:stroke fill markers;shape-rendering:auto;solid-color:#000000;image-rendering:auto;stroke-width:20.05;fill:#0e8cba" d="m448.2 334.5 45.68 15.2-8.686 21.67-21.73 8.744z"/>
 <text id="text4798" y="822.08295" x="411.48291" xml:space="preserve" style="font-variant-ligatures:normal;font-size:93.33px;font-family:&apos;Ubuntu Condensed&apos;;font-variant-numeric:normal;letter-spacing:0px;line-height:0px;word-spacing:0px;font-variant-caps:normal;font-feature-settings:normal;fill:#0e8cba"><tspan id="tspan4800" x="411.48291" y="822.08295">Quixe</tspan></text>
 <text id="text4806" y="909.71124" x="346.81125" xml:space="preserve" style="font-variant-ligatures:normal;font-size:40px;font-family:&apos;Ubuntu Condensed&apos;;font-variant-numeric:normal;letter-spacing:0px;line-height:0px;word-spacing:0px;font-variant-caps:normal;font-feature-settings:normal;fill:#000000"><tspan id="tspan4804" x="346.81125" y="909.71124">a Glulx VM interpreter</tspan></text>
</svg>
