<?xml version="1.0" encoding="UTF-8" standalone="no"?>
<svg id="svg8" xmlns="http://www.w3.org/2000/svg" height="120" width="120" viewBox="0 0 32 32" version="1.1">
 <circle id="path4760" cx="16.03" cy="16.06" r="10.22" style="stroke-linejoin:round;color-rendering:auto;color:#000000;isolation:auto;mix-blend-mode:normal;paint-order:stroke fill markers;shape-rendering:auto;solid-color:#000000;stroke:#333;image-rendering:auto;stroke-width:.7672;fill:none"/>
<g style="fill:#0e8cba;fill-rule:evenodd">
 <path id="path4808" d="m11.23 4.532-0.03936 3.148 2.178 1.942-0.03936-3.122z"/>
 <path id="path4810" d="m20.74 4.532 0.03936 3.148-2.178 1.942 0.03936-3.122z"/>
 <path id="path4812" d="m11.23 27.61-0.03936-3.148 2.178-1.942-0.03936 3.122z"/>
 <path id="path4814" d="m20.74 27.61 0.03936-3.148-2.178-1.942 0.03936 3.122z"/>
 <path id="path4822" d="m27.53 11.32-3.148-0.0394-1.942 2.178 3.122-0.0394z"/>
 <path id="path4824" d="m27.53 20.83-3.148 0.0394-1.942-2.178 3.122 0.0394z"/>
 <path id="path4826" d="m4.442 11.32 3.148-0.0394 1.942 2.178l-3.122-0.04z"/>
 <path id="path4828" d="m4.442 20.83 3.148 0.0394 1.942-2.178l-3.122 0.04z"/>
 <path id="path4898" d="m16.08 30.54 1.892-9.35-1.707 0.4082-2.226-0.5566z"/>
 <path id="path4900" d="m16.08 1.46 1.892 9.35-1.707-0.4082-2.226 0.5566z"/>
 <path id="path4902" d="m1.462 16.07 9.35 1.892-0.4082-1.707 0.5566-2.226z"/>
 <path id="path4904" d="m30.54 16.07-9.35 1.892 0.4082-1.707-0.5566-2.226z"/>
 <path id="path4876" d="m6.762 6.79 4.638 6.976 0.705-1.558 1.67-0.9276z"/>
 <path id="path4878" d="m25.42 6.79-4.638 6.976-0.705-1.558-1.67-0.9276z"/>
 <path id="path4880" d="m6.762 25.41 4.638-6.976 0.705 1.558 1.67 0.9276z"/>
 <path id="path4882" d="m25.42 25.41-4.638-6.976-0.705 1.558-1.67 0.9276z"/>
</g>
 <circle id="circle4936" cx="16.03" cy="16.06" r="5.405" style="opacity:.2;color-rendering:auto;color:#000000;isolation:auto;mix-blend-mode:normal;paint-order:stroke fill markers;shape-rendering:auto;solid-color:#000000;image-rendering:auto;fill:#0e8cba"/>
 <circle id="circle4762" cx="16.03" style="stroke-linejoin:round;color-rendering:auto;color:#000000;isolation:auto;mix-blend-mode:normal;paint-order:stroke fill markers;shape-rendering:auto;solid-color:#000000;stroke:#333;image-rendering:auto;stroke-width:1.358;fill:none" r="5.405" cy="16.06"/>
<g style="color-rendering:auto;fill-rule:evenodd;color:#000000;isolation:auto;mix-blend-mode:normal;paint-order:stroke fill markers;shape-rendering:auto;solid-color:#000000;image-rendering:auto;fill:#0e8cba">
 <path id="path4783" d="m16 11.5-1.075 2.148 1.071 0.458 1.075-0.458z"/>
 <path id="path4928" d="m16 20.5-1.075-2.148 1.071-0.458 1.075 0.458z"/>
 <path id="path4930" d="m20.5 16-2.148-1.075-0.458 1.071 0.458 1.075z"/>
 <path id="path4932" d="m11.5 16 2.148-1.075 0.458 1.071-0.458 1.075z"/>
 <path id="path4934" d="m19.19 12.82-2.279 0.7585 0.4334 1.081 1.084 0.4363z"/>
 <path id="path4936" d="m12.82 19.19 0.7585-2.279 1.081 0.4334 0.4363 1.084z"/>
 <path id="path4938" d="m19.18 19.19-0.7585-2.279-1.081 0.4334-0.4363 1.084z"/>
 <path id="path4940" d="m12.81 12.82 2.279 0.7585-0.4334 1.081-1.084 0.4363z"/>
</g>
</svg>
